<svg version="1.2" xmlns="http://www.w3.org/2000/svg" viewBox="0 0 42 32" width="42" height="32">
	<title>HDe1L-longtail-logo</title>
	<style>
		.s0 { fill: #ffcb08 } 
		.s1 { fill: #ed1c24 } 
		.s2 { fill: #a6ce39 } 
		.s3 { fill: #f04c53 } 
		.s4 { fill: #f5efb7 } 
		.s5 { fill: #bcda6b } 
		.s6 { fill: #d0e597 } 
		.s7 { fill: #e8debc } 
		.s8 { fill: #6f6135 } 
		.s9 { fill: #e6b696 } 
		.s10 { fill: #6f6f71 } 
	</style>
	<path class="s0" d="m31.4 26.5q-1-1-2.1-2-1.1-1-2.2-1.9-1.1-0.9-2.3-1.8-1.2-0.8-2.4-1.6-0.6-0.4-1.3-0.8-0.6-0.4-1.3-0.7-0.7-0.4-1.4-0.7-0.7-0.3-1.4-0.6-0.6-0.2-1.2-0.4-0.6-0.2-1.2-0.3-0.6-0.2-1.2-0.3-0.6-0.1-1.2-0.2-0.4 0-0.9 0-0.4 0-0.8-0.1-0.4 0-0.8 0-0.4 0.1-0.8 0.1-1 0-2 0.2-1 0.2-2 0.4-0.9 0.3-1.9 0.6-0.9 0.4-1.8 0.8l-0.5 0.2c0 0-0.1 0-0.1 0v-0.1q0.4-0.8 0.9-1.6 0.5-0.7 1.1-1.4 0.6-0.7 1.4-1.2 0.7-0.6 1.5-1 0.7-0.4 1.5-0.7 0.7-0.3 1.5-0.5 0.8-0.2 1.7-0.2 0.8-0.1 1.6-0.1 0.1 0 0.2 0 0.1 0 0.3 0.1 0.1 0 0.2 0 0.1 0 0.2 0.1 1.1 0.1 2.2 0.3 1.2 0.2 2.2 0.6 1.1 0.4 2.1 0.9 1 0.5 2 1.2 0.7 0.5 1.4 1 0.6 0.5 1.3 1.1 0.6 0.6 1.3 1.2 0.6 0.6 1.2 1.2 0.7 0.8 1.5 1.7 0.7 0.8 1.4 1.7 0.7 0.9 1.3 1.8 0.7 0.9 1.3 1.8 0.1 0.2 0.3 0.4 0.2 0.3 0.5 0.6 0.2 0.3 0.4 0.6 0.2 0.3 0.4 0.6 0.2 0.3 0.3 0.6 0.1 0.1 0.1 0.1 0 0.1 0.1 0.2 0 0 0 0.1 0.1 0 0.1 0.1 0 0 0 0.1 0.1 0 0.1 0.1 0 0 0.1 0.1 0 0 0 0c0.2 0.5 0.6 0.8 0.7 1.3-0.2 0.1-3.5-3.6-3.6-3.7z"/>
	<path class="s1" d="m0.6 17.4q0-0.2-0.1-0.3-0.1-0.1-0.1-0.3-0.1-0.1-0.1-0.3 0-0.1 0-0.3-0.4-1.4-0.3-2.9 0-1.5 0.4-2.9 0.4-1.4 1.2-2.7 0.7-1.3 1.8-2.4 0.8-0.8 1.7-1.5 0.9-0.8 1.9-1.3 1.1-0.6 2.2-1 1-0.5 2.2-0.7 0.5-0.2 1-0.3 0.5-0.1 1-0.1 0.5-0.1 1-0.2 0.5 0 1-0.1 0.7 0 1.3-0.1 0.6 0 1.2 0 0.6 0 1.2 0 0.6 0 1.2 0.1 0.8 0 1.5 0.1 0.7 0 1.5 0.1 0.7 0.1 1.4 0.2 0.7 0.1 1.5 0.2 0.8 0.2 1.7 0.3 0.8 0.2 1.6 0.4 0.9 0.2 1.7 0.4 0.9 0.2 1.7 0.4 0 0 0.1 0 0 0.1 0.1 0.1 0 0 0 0 0.1 0 0.1 0c-0.2 0.4-0.5 0.2-0.8 0.2h-1.7q-2.5-0.1-5 0-1.4 0-2.8 0.1-1.4 0.2-2.8 0.4-1.4 0.2-2.7 0.5-1.4 0.3-2.7 0.6-0.7 0.2-1.4 0.5-0.7 0.2-1.3 0.5-0.7 0.2-1.3 0.6-0.6 0.3-1.3 0.6-0.2 0.2-0.5 0.4 0 0 0 0.1-0.1 0-0.1 0 0 0.1 0 0.1-0.1 0-0.1 0l-0.3 0.3q-0.5 0.2-0.9 0.4-0.4 0.2-0.8 0.5-0.5 0.2-0.9 0.5-0.3 0.3-0.7 0.6-0.9 0.7-1.5 1.5-0.7 0.8-1.3 1.7-0.5 1-0.8 2-0.4 1-0.6 2 0 0.1 0 0.3 0 0.1-0.1 0.2 0 0.1 0 0.2-0.1 0.1-0.1 0.2z"/>
	<path class="s2" d="m0.6 17.3q0.1-0.3 0.1-0.7 0.1-0.4 0.2-0.7 0-0.4 0.1-0.7 0.1-0.4 0.2-0.8 0.4-1 0.9-1.9 0.5-0.9 1.2-1.8 0.7-0.8 1.5-1.5 0.8-0.7 1.7-1.2c0.6-0.4 1.2-0.6 1.8-0.9q0.1 0 0.1 0 0-0.1 0.1-0.1 0 0 0 0 0.1 0 0.1-0.1c0.1 0 0.3 0 0.4 0q0.3-0.2 0.6-0.2 0.3-0.1 0.7-0.2 0.3-0.1 0.6-0.2 0.3-0.1 0.6-0.1 0.5-0.1 1-0.2 0.4 0 0.9-0.1 0.5 0 0.9 0 0.5 0 1 0 1.2 0.1 2.3 0.3 1.2 0.2 2.3 0.6 1.2 0.3 2.3 0.7 1.1 0.4 2.2 0.9 1.3 0.6 2.5 1.2 1.3 0.6 2.5 1.3 1.2 0.7 2.4 1.5 1.2 0.8 2.4 1.6c0.7 0.6 1.5 1.1 2.3 1.7 0 0.3-0.1 0.3-0.3 0.2-1.5-0.7-3.1-1.4-4.6-2q-1-0.4-2.1-0.8-1-0.4-2.1-0.7-1-0.3-2.1-0.6-1-0.3-2.1-0.6-0.6-0.1-1.2-0.2-0.6-0.1-1.3-0.2-0.6-0.2-1.2-0.2-0.6-0.1-1.3-0.2-0.4 0-0.9 0-0.5-0.1-0.9-0.1-0.5 0-1 0-0.5 0-0.9 0-0.3 0.1-0.5 0.1-0.3 0-0.5 0-0.3 0.1-0.5 0.1-0.3 0-0.5 0.1-0.1 0-0.2 0.1-0.1 0-0.2 0-0.1 0-0.1 0.1-0.1 0-0.2 0h-0.8q-1.2 0-2.3 0.3-1.1 0.2-2.2 0.7-1 0.4-1.9 1.1-1 0.6-1.8 1.5-0.3 0.2-0.5 0.5-0.3 0.3-0.5 0.7-0.2 0.3-0.5 0.6-0.2 0.4-0.4 0.7c0 0.2-0.1 0.4-0.3 0.4z"/>
	<path class="s3" d="m32.3 2.5h0.6c0.1 0 0.2 0 0.3-0.2 0.2 0 0.4 0.1 0.7 0.2q-0.2 0-0.4 0.1-0.2 0-0.4 0-0.2 0-0.4-0.1-0.2 0-0.4 0z"/>
	<path class="s4" d="m11.8 10.8q0.1-0.1 0.2-0.1 0-0.1 0.1-0.1 0.1 0 0.2 0 0.1 0 0.2 0l0.2 0.2q-0.1 0-0.2 0-0.1 0-0.2 0-0.2 0-0.3 0-0.1 0-0.2 0z"/>
	<path class="s5" d="m36.2 15.9c0.1 0 0.2 0 0.3-0.1l0.3 0.2c0 0.1 0 0.2-0.1 0.1q-0.1 0-0.1 0-0.1 0-0.2-0.1 0 0-0.1 0 0-0.1-0.1-0.1z"/>
	<path class="s6" d="m36.7 16.1l0.1-0.1 0.3 0.2c0 0 0.1 0.1 0 0.1q-0.1 0-0.1 0 0 0 0 0 0 0 0 0 0 0-0.1 0z"/>
	<path class="s7" d="m9 6.8q0 0-0.1 0.1 0 0-0.1 0 0 0-0.1 0.1 0 0-0.1 0 0-0.1 0-0.1 0 0 0 0 0 0 0 0 0 0 0 0 0 0 0 0c0 0 0.2-0.2 0.3-0.2z"/>
	<path class="s8" d="m34.3 27.9v1.1q-0.1 0-0.1-0.1 0 0-0.1 0 0-0.1 0-0.1 0-0.1 0-0.1c0.1-0.1 0-0.3 0-0.4 0-0.2 0.1-0.3 0.2-0.4z"/>
	<path class="s9" d="m8.6 6.8v0.2q0 0 0 0-0.1 0.1-0.1 0.1-0.1 0-0.1 0 0 0-0.1 0 0.1-0.1 0.1-0.1 0-0.1 0-0.1 0.1 0 0.1 0 0.1-0.1 0.1-0.1z"/>
	<path class="s10" d=""/>
</svg>