<svg id="Layer_1" data-name="Layer 1" xmlns="http://www.w3.org/2000/svg" viewBox="0 0 131.63 53.29"><defs><style>.cls-1{fill:#ffcb08;}.cls-2{fill:#ed1c24;}.cls-3{fill:#a6ce39;}.cls-4{fill:#231f20;}.cls-5{fill:#242021;}.cls-6{fill:#58585a;}.cls-7{fill:#252122;}.cls-8{fill:#59595b;}.cls-9{fill:#272324;}.cls-10{fill:#5c5c5e;}.cls-11{fill:#5b5b5c;}.cls-12{fill:#5e5e60;}.cls-13{fill:#919193;}.cls-14{fill:#7d7d7f;}.cls-15{fill:#919192;}.cls-16{fill:#8b8b8d;}.cls-17{fill:#8e8e8f;}.cls-18{fill:#8c8c8e;}.cls-19{fill:#6d6d6e;}.cls-20{fill:#9b9b9c;}.cls-21{fill:#7b7b7c;}.cls-22{fill:#7f7f80;}.cls-23{fill:#939394;}.cls-24{fill:#9a9a9b;}.cls-25{fill:#909092;}.cls-26{fill:#f04c53;}.cls-27{fill:#858586;}.cls-28{fill:#a0a0a1;}.cls-29{fill:#747476;}.cls-30{fill:#949495;}.cls-31{fill:#8d8d8f;}.cls-32{fill:#c5c5c6;}.cls-33{fill:#9f9fa0;}.cls-34{fill:#848485;}.cls-35{fill:#9c9c9d;}.cls-36{fill:#f5efb7;}.cls-37{fill:#949496;}.cls-38{fill:#99999a;}.cls-39{fill:#989899;}.cls-40{fill:#bababb;}.cls-41{fill:#979799;}.cls-42{fill:#767677;}.cls-43{fill:#828284;}.cls-44{fill:#858587;}.cls-45{fill:#bcda6b;}.cls-46{fill:#909091;}.cls-47{fill:#8d8d8e;}.cls-48{fill:#727274;}.cls-49{fill:#737375;}.cls-50{fill:#838385;}.cls-51{fill:#929293;}.cls-52{fill:#d0e597;}.cls-53{fill:#707072;}.cls-54{fill:#cacacb;}.cls-55{fill:#c3c3c4;}.cls-56{fill:#e2e2e3;}.cls-57{fill:#e8debc;}.cls-58{fill:#d7d7d7;}.cls-59{fill:#777779;}.cls-60{fill:#818182;}.cls-61{fill:#767678;}.cls-62{fill:#cdcccd;}.cls-63{fill:#bebebf;}.cls-64{fill:#e3e3e3;}.cls-65{fill:#6e6e6f;}.cls-66{fill:#6f6f71;}.cls-67{fill:#7b7b7d;}.cls-68{fill:#717172;}.cls-69{fill:#6b6b6c;}.cls-70{fill:#717173;}.cls-71{fill:#7f7f81;}.cls-72{fill:#6f6135;}.cls-73{fill:#e6b696;}.cls-74{fill:#b0b0b0;}.cls-75{fill:#6b6b6d;}.cls-76{fill:#6d6d6f;}</style></defs><path class="cls-1" d="M73.23,45.54a56,56,0,0,0-9-7.34,30,30,0,0,0-5.36-2.79A19.36,19.36,0,0,0,54,34.25a19.85,19.85,0,0,0-3.27-.06A21,21,0,0,0,43,36.25l-.44.2c-.05,0-.11,0-.13-.08v-.09a11.31,11.31,0,0,1,4.89-5.16,11.81,11.81,0,0,1,6.32-1.48,2.25,2.25,0,0,1,.89.15,16.81,16.81,0,0,1,8.49,3,32.81,32.81,0,0,1,5.2,4.51,53.68,53.68,0,0,1,5.5,7c.1.15.22.29.33.43a12.58,12.58,0,0,1,1.64,2.4,4.3,4.3,0,0,1,.24.48,4.15,4.15,0,0,0,.24.34c.2.42.6.75.63,1.25C76.59,49.33,73.33,45.63,73.23,45.54Z" transform="translate(-41.84 -19.01)"/><path class="cls-2" d="M42.47,36.37a2.83,2.83,0,0,1-.36-1.13,11.75,11.75,0,0,1,3.12-10.88,15.88,15.88,0,0,1,8-4.59,26.29,26.29,0,0,1,4.05-.65,34.85,34.85,0,0,1,4.9-.05,50,50,0,0,1,5.83.66,67.76,67.76,0,0,1,6.72,1.49,3.4,3.4,0,0,1,.34.12c-.24.33-.57.14-.87.13l-1.69,0c-1.65-.05-3.31-.05-5,0a47.87,47.87,0,0,0-11,1.68,21.63,21.63,0,0,0-5.23,2.19c-.19.11-.37.24-.55.36a.59.59,0,0,1-.2.24l-.32.26a16.55,16.55,0,0,0-3.3,2,11.5,11.5,0,0,0-4.12,7.24,2.62,2.62,0,0,1-.29.91Z" transform="translate(-41.84 -19.01)"/><path class="cls-3" d="M42.47,36.34a15,15,0,0,1,.61-2.89A11.68,11.68,0,0,1,48.39,27c.57-.34,1.18-.6,1.77-.91a.69.69,0,0,0,.28-.15c.12-.07.27,0,.39-.08a20.49,20.49,0,0,1,2.56-.67,15.54,15.54,0,0,1,3.73-.24,26.78,26.78,0,0,1,9.12,2.44A54.28,54.28,0,0,1,76,33c.78.57,1.57,1.12,2.3,1.76,0,.21-.09.21-.24.12-1.54-.7-3.08-1.41-4.65-2a57.79,57.79,0,0,0-8.35-2.63,39.78,39.78,0,0,0-5-.82,29.19,29.19,0,0,0-3.74-.07,12.19,12.19,0,0,0-2,.25,2.2,2.2,0,0,1-.71.19l-.79,0a11.69,11.69,0,0,0-8.16,3.57,11.21,11.21,0,0,0-1.88,2.55C42.71,36.08,42.66,36.27,42.47,36.34Z" transform="translate(-41.84 -19.01)"/><path class="cls-4" d="M63.46,44.22a3.84,3.84,0,0,1,2.12-1.15,5.69,5.69,0,0,1,2.75.11,3.91,3.91,0,0,1,2.82,3.31,8,8,0,0,1,.11,1.38v6.48c0,.65,0,.61-.64.61H68.81c-.28,0-.3,0-.31-.32V48.22a5.93,5.93,0,0,0-.12-1.33,1.93,1.93,0,0,0-1.8-1.6,3.25,3.25,0,0,0-2.44.69,1.13,1.13,0,0,0-.47,1c0,2.42,0,4.84,0,7.26,0,.85.09.74-.74.74H61.19a.2.2,0,0,1-.23-.22c0-.12,0-.24,0-.36,0-3.55,0-7.1,0-10.65,0-.57,0-.54.58-.54h.91c.53,0,.45,0,.7.47A1.74,1.74,0,0,0,63.46,44.22Z" transform="translate(-41.84 -19.01)"/><path class="cls-4" d="M92.29,52.35v2.28a.24.24,0,0,1-.2.26c-.29.06-.59.15-.88.19a11.79,11.79,0,0,1-2.3,0,3.15,3.15,0,0,1-2.86-2.54,5.91,5.91,0,0,1-.13-1.32V45.93c0-.54,0-.53-.52-.54-.25,0-.57.11-.76-.06s-.07-.54-.08-.81,0-.73,0-1.09c0-.19.06-.24.26-.25h.85c.19,0,.25-.05.25-.25V41.35c0-.67,0-.52.55-.75s1.21-.45,1.81-.67c.35-.13.39-.1.39.25,0,.76,0,1.53,0,2.3,0,.14,0,.28,0,.42s0,.27.28.27h2.73c.12,0,.17.08.18.19v.06c0,.57,0,1.13,0,1.7,0,.2-.05.25-.24.25H88.9c-.14,0-.23.06-.22.21s0,.2,0,.3v4.48c0,.28,0,.57,0,.85a3.84,3.84,0,0,0,.11.59,1.28,1.28,0,0,0,1.17,1,3.29,3.29,0,0,0,1.78-.23Z" transform="translate(-41.84 -19.01)"/><path class="cls-4" d="M44.72,38.17a1.3,1.3,0,0,1,.06.67q0,6.09,0,12.16a7.88,7.88,0,0,0,.05,1.09A2.14,2.14,0,0,0,46.06,54a2,2,0,0,1-1.38,1.11,3,3,0,0,1-1.08.06,1.51,1.51,0,0,1-1.2-.82,2.55,2.55,0,0,1-.3-1c0-.36-.05-.73-.05-1.09V39.44c0-.75-.07-.61.61-.79S44,38.33,44.72,38.17Z" transform="translate(-41.84 -19.01)"/><path class="cls-4" d="M117.61,54a2,2,0,0,1-1.42,1.13,3,3,0,0,1-1,0,1.51,1.51,0,0,1-1.23-.86,2.36,2.36,0,0,1-.28-1c0-.32-.05-.64-.05-1v-13c0-.7,0-.57.6-.73s1.37-.33,2.06-.49a1.17,1.17,0,0,1,.07.66q0,5.78,0,11.55c0,.33,0,.65,0,1s0,.56.07.84A2,2,0,0,0,117.61,54Z" transform="translate(-41.84 -19.01)"/><path class="cls-4" d="M109.94,49.09v5.56c0,.26,0,.3-.33.3h-2.06c-.34,0-.36,0-.37-.39V46.1c0-.77,0-.66-.69-.67h-.66a.15.15,0,0,1-.15-.16c0-.62,0-1.25,0-1.87,0-.16.1-.2.24-.21h3.87a.17.17,0,0,1,.15.16c0,.16,0,.32,0,.48Z" transform="translate(-41.84 -19.01)"/><path class="cls-5" d="M134.86,68.43c-.45,1.06-.89,2.12-1.35,3.17a1.43,1.43,0,0,1-.3.57,3.21,3.21,0,0,1-.3-.62c-.1-.22-.18-.45-.28-.67s-.19-.45-.28-.67-.19-.44-.28-.67-.17-.45-.28-.67a2.12,2.12,0,0,0-.31-.62c-.13.06-.13.16-.15.26l-.84,3.21c-.09.32-.09.32-.4.33h-.37a.12.12,0,0,1-.09-.13c0-.06,0-.12,0-.18l1.56-5.9a.42.42,0,0,1,.07-.13,9.13,9.13,0,0,1,.65,1.43c.22.5.42,1,.63,1.5s.41,1,.62,1.45c.14-.06.17-.18.21-.29l1.47-3.51a1.57,1.57,0,0,1,.3-.57c.25.69.39,1.38.57,2.06s.38,1.41.56,2.11l.54,2.1a1.7,1.7,0,0,1-.21.07c-.66,0-.57.07-.75-.58-.26-1-.53-2-.8-3C135,68.33,134.93,68.35,134.86,68.43Z" transform="translate(-41.84 -19.01)"/><path class="cls-5" d="M72.83,72.3l-1.56-1.59-1.44-1.48-1.46-1.5a.51.51,0,0,0-.1.45c0,1.07,0,2.14,0,3.21,0,.16,0,.32,0,.48a.17.17,0,0,1-.19.18h-.3c-.28,0-.35,0-.35-.35,0-1.93,0-3.87,0-5.81a.17.17,0,0,1,.1-.18,3.62,3.62,0,0,1,.53.51c.19.18.37.38.55.56l.55.57.59.6.55.57.55.56.55.57a3.88,3.88,0,0,0,.55.52c.13-.15.08-.29.08-.42V66.42c0-.14,0-.29,0-.43a.16.16,0,0,1,.16-.15h.54c.1,0,.13.08.14.16v5.93C72.86,72,72.85,72.1,72.83,72.3Z" transform="translate(-41.84 -19.01)"/><path class="cls-5" d="M171.53,70.27V66.15c0-.28,0-.32.31-.32.56,0,.54,0,.54.51,0,1.84,0,3.67,0,5.51,0,.11,0,.24-.09.36-.26-.21-.47-.47-.71-.7l-.76-.78-.72-.74-.72-.73-.76-.78-.7-.72c-.17.07-.13.18-.13.27v3.33c0,.16,0,.32,0,.48s-.08.21-.23.21c-.64,0-.61.07-.61-.56V65.76c.21-.08.26.09.35.18L171,69.75C171.14,69.9,171.28,70,171.53,70.27Z" transform="translate(-41.84 -19.01)"/><path class="cls-5" d="M96.47,67.8v4c0,.11,0,.19-.18.19-.73,0-.67.09-.67-.61V65.75c.21-.06.27.1.36.19l3.71,3.82.42.4c.15-.06.11-.18.11-.27V66.44c0-.14,0-.28,0-.42s.08-.17.19-.19h.12c.55,0,.53,0,.53.52v5.44a1.11,1.11,0,0,1,0,.46c-.3-.25-.52-.51-.76-.75s-.51-.52-.76-.78L98.78,70l-.72-.74-.76-.78-.71-.72Z" transform="translate(-41.84 -19.01)"/><path class="cls-6" d="M158.21,55.12l-.25,0-.14-.08a1.1,1.1,0,0,1-.6-1c0-.24,0-.48,0-.72s0-.24,0-.36,0-.3,0-.45c.48-.75,1-1.49,1.42-2.25a2.43,2.43,0,0,1,.57-.49q1.13-1.92,2.27-3.84c.38-.64.77-1.28,1.14-1.92a.33.33,0,0,1,.44-.19,5,5,0,0,0,1,.05c.09.18,0,.28-.11.39l-3.55,5.69c-.64,1-1.29,2-1.86,3.11a8,8,0,0,0-.53,1.15.8.8,0,0,0,.05.69l.13.1h0s0,.06,0,.09S158.22,55.12,158.21,55.12Z" transform="translate(-41.84 -19.01)"/><path class="cls-7" d="M75.53,68.94V66.15c0-.27,0-.32.31-.32h2.85c.26,0,.3,0,.31.33v.18c0,.31,0,.34-.36.34H76.77c-.38,0-.41,0-.39.35a3.07,3.07,0,0,0,.07,1.13,4.86,4.86,0,0,0,1.08,0h1.21c.19,0,.24.06.25.25a1.93,1.93,0,0,1,0,.24c0,.32,0,.34-.35.35h-2c-.21,0-.27,0-.27.23,0,.57,0,1.13,0,1.7,0,.15.08.21.22.21h2.12c.24,0,.27,0,.28.29s0,.24,0,.36a.19.19,0,0,1-.2.19H76c-.5,0-.48,0-.48-.51v-2.6Z" transform="translate(-41.84 -19.01)"/><path class="cls-5" d="M108.62,38.63a1.6,1.6,0,0,1,1.57,1.64,1.6,1.6,0,0,1-3.2-.05A1.62,1.62,0,0,1,108.62,38.63Z" transform="translate(-41.84 -19.01)"/><path class="cls-7" d="M62.69,69.34V67.11c0-.42,0-.42-.45-.43H61.4s-.13,0-.14-.08a1.63,1.63,0,0,1,0-.66.16.16,0,0,1,.08-.08,1,1,0,0,1,.24,0h3.09c.35,0,.35,0,.36.38s0,.47-.47.47l-.84,0a.16.16,0,0,0-.16.15c0,.16,0,.32,0,.48,0,1.35,0,2.7,0,4.06v.48a.18.18,0,0,1-.2.18H63c-.27,0-.34,0-.34-.35Z" transform="translate(-41.84 -19.01)"/><path class="cls-7" d="M149.35,69.34V67c0-.24,0-.29-.28-.29h-1a.2.2,0,0,1-.22-.22,2.16,2.16,0,0,1,0-.36c0-.23,0-.27.29-.27h3.21c.25,0,.28,0,.29.27v.31c0,.23,0,.27-.3.27h-.9c-.25,0-.27,0-.27.29,0,.8,0,1.61,0,2.42s0,1.37,0,2,0,.6-.64.6c-.16,0-.2-.1-.21-.23V69.34Z" transform="translate(-41.84 -19.01)"/><path class="cls-8" d="M170.91,49.42l.13-.2a.3.3,0,0,1,.3-.15h1c.07.16,0,.25-.09.35l-1.73,2.89a14,14,0,0,0-.79,1.48,1.53,1.53,0,0,0-.14,1.05c0,.23-.11.23-.27.15a1.15,1.15,0,0,1-.59-1c0-.17,0-.35,0-.53s-.08-.36-.09-.55.23-.5.38-.73a18.83,18.83,0,0,0,1.3-2.1c.09-.12.24-.19.32-.33a.33.33,0,0,1,.16-.15h0C170.82,49.5,170.87,49.47,170.91,49.42Z" transform="translate(-41.84 -19.01)"/><path class="cls-8" d="M161.24,52.34A28.26,28.26,0,0,0,163,49.59c.07-.13.14-.25.22-.37a.31.31,0,0,1,.3-.15h1c.11.17,0,.27-.09.38-.73,1.21-1.47,2.41-2.2,3.61a8.77,8.77,0,0,0-.45.86,1.08,1.08,0,0,0-.05.93c0,.23-.11.22-.26.14a1.18,1.18,0,0,1-.63-1.18,6.41,6.41,0,0,1,.16-.76.47.47,0,0,1,.06-.3C161.17,52.64,161.13,52.46,161.24,52.34Z" transform="translate(-41.84 -19.01)"/><path class="cls-8" d="M142.94,51.46c-.74,1.08-1.47,2.17-2.12,3.3a.47.47,0,0,1-.53.28,6.59,6.59,0,0,0-.89,0c-.1-.12,0-.19,0-.27.49-.8,1-1.59,1.5-2.4.34-.55.66-1.11,1-1.67a6.44,6.44,0,0,0,.38-.89.52.52,0,0,0-.18-.64c0-.24.14-.14.25-.13a1.09,1.09,0,0,1,.69,1,3.87,3.87,0,0,1,0,.59c-.09.11,0,.25,0,.38s-.11.22,0,.35A.08.08,0,0,1,142.94,51.46Z" transform="translate(-41.84 -19.01)"/><path class="cls-8" d="M139.46,51.48a35.52,35.52,0,0,0-2,3.22l-.12.21a.29.29,0,0,1-.31.14,3.39,3.39,0,0,0-.9,0A.13.13,0,0,1,136,55c0-.06,0-.11,0-.16.45-.72.9-1.43,1.36-2.14s.88-1.4,1.25-2.14a8.67,8.67,0,0,0,.36-.83.56.56,0,0,0,0-.52c0-.23.1-.21.25-.13a1.08,1.08,0,0,1,.51,1,2.47,2.47,0,0,1-.15.81C139.52,51.07,139.51,51.28,139.46,51.48Z" transform="translate(-41.84 -19.01)"/><path class="cls-8" d="M146,49a1.15,1.15,0,0,1,.71,1,1.93,1.93,0,0,1-.07,1,4.26,4.26,0,0,1-.56,1.13l-1,1.5a1.43,1.43,0,0,0-.28,1.2c0,.22-.11.22-.26.14a1.41,1.41,0,0,1-.56-1.64,2.78,2.78,0,0,1,.49-1.08c.42-.61.83-1.23,1.23-1.85a3.87,3.87,0,0,0,.31-.65.5.5,0,0,0-.13-.6C145.83,49.06,145.86,49,146,49Z" transform="translate(-41.84 -19.01)"/><path class="cls-8" d="M149.61,52.09a3,3,0,0,0-.86,1.81,1,1,0,0,0,.38,1c0,.11,0,.17-.13.12a1.73,1.73,0,0,1-1.1-1.55c0-.21,0-.43,0-.64l0,0c0,.08-.12,0-.05,0-.1,0-.15,0-.1-.1l.69-1.06a4.88,4.88,0,0,1,1.08-1.14,9.76,9.76,0,0,1,2.32-1.29,1.55,1.55,0,0,1,.23-.05c.12,0,.23-.06.3.08a.45.45,0,0,1-.26.37,10.38,10.38,0,0,0-2.17,2.17A3.88,3.88,0,0,1,149.61,52.09Z" transform="translate(-41.84 -19.01)"/><path class="cls-8" d="M165,52.42c.18-.26.35-.53.53-.8l.07-.09A7.9,7.9,0,0,1,169.45,49c.12,0,.23-.07.28.09-.13.29-.44.33-.66.5a9.68,9.68,0,0,0-3,3.85,1.51,1.51,0,0,0-.09,1.18.84.84,0,0,1,.05.17s0,.06,0,.09-.16.15-.29.07a1.43,1.43,0,0,1-.72-1,11.3,11.3,0,0,1-.08-1.17A1.59,1.59,0,0,0,165,52.42Z" transform="translate(-41.84 -19.01)"/><path class="cls-8" d="M123.82,52.08a1.37,1.37,0,0,0-.23.19A2.92,2.92,0,0,0,123,54.5c.08.18.06.29-.17.27a1.8,1.8,0,0,1-.74-1.68,2.8,2.8,0,0,1,.56-1.56,4.11,4.11,0,0,1,.68-.76,8.42,8.42,0,0,1,2.81-1.59c.14-.08.28-.11.39,0s-.18.31-.32.41A10.58,10.58,0,0,0,123.94,52Z" transform="translate(-41.84 -19.01)"/><path class="cls-8" d="M154.19,55a1.58,1.58,0,0,1-.81-1.4,3.15,3.15,0,0,1,0-.53c0-.14.14-.3-.14-.27l0,0h-.05l0,0c0-.21.22-.33.33-.49s.23-.28.33-.43a8.23,8.23,0,0,1,3.58-2.69l.12,0c.13-.07.23-.07.29.09s-.26.34-.43.49a12.52,12.52,0,0,0-2.39,2.79,3.31,3.31,0,0,0-.54,2.35C154.36,55,154.31,55.05,154.19,55Z" transform="translate(-41.84 -19.01)"/><path class="cls-9" d="M92.84,65.83v5.68a3,3,0,0,1,0,.42.22.22,0,0,1-.12.11,1,1,0,0,1-.24,0c-.46,0-.46,0-.46-.46,0-1.77,0-3.54,0-5.3,0-.08,0-.16,0-.24a.2.2,0,0,1,.23-.22Z" transform="translate(-41.84 -19.01)"/><path class="cls-9" d="M155,68.91v2.65c0,.12,0,.24,0,.36a.2.2,0,0,1-.12.12.53.53,0,0,1-.18,0c-.53,0-.53,0-.53-.52V66.35c0-.12,0-.24,0-.36a.16.16,0,0,1,.16-.15c.18,0,.36,0,.54,0a.13.13,0,0,1,.12.12,2.17,2.17,0,0,1,0,.36Z" transform="translate(-41.84 -19.01)"/><path class="cls-10" d="M153.38,49a.74.74,0,0,1,.54.51.93.93,0,0,1-.13.81,2,2,0,0,1-.84.74,6.09,6.09,0,0,1-1.85.65c-.12,0-.24.07-.31-.08.05-.31.34-.36.56-.48a6,6,0,0,0,1.16-.71,1.56,1.56,0,0,0,.67-1.33C153.22,49.05,153.27,49,153.38,49Z" transform="translate(-41.84 -19.01)"/><path class="cls-10" d="M127.59,49.05c.53.28.66.59.47,1.11a1.47,1.47,0,0,1-.41.58,3,3,0,0,1-.81.5,6.93,6.93,0,0,1-1.54.5c-.12,0-.23.06-.3-.08s.27-.33.46-.43a12,12,0,0,0,1.09-.65,1.64,1.64,0,0,0,.84-1.43C127.43,49.06,127.48,49,127.59,49.05Z" transform="translate(-41.84 -19.01)"/><path class="cls-11" d="M165.61,46.93a1.08,1.08,0,0,1-1.09,1,.41.41,0,0,1-.41-.43,1.1,1.1,0,0,1,1.06-1.08A.41.41,0,0,1,165.61,46.93Z" transform="translate(-41.84 -19.01)"/><path class="cls-12" d="M130.12,52.21l.45-.16a2.53,2.53,0,0,1,1.63-.1,5.78,5.78,0,0,0,.7.14c.21.18.57-.14.72.22a4,4,0,0,1-2.65.13C130.72,52.24,130.32,52.61,130.12,52.21Z" transform="translate(-41.84 -19.01)"/><path class="cls-13" d="M147.68,52.7l.1.1A8.93,8.93,0,0,1,146,54.74a1.23,1.23,0,0,1-.67.36.06.06,0,0,1,0-.08s0,0,0,0a6.62,6.62,0,0,0,1.69-1.56A4.79,4.79,0,0,1,147.68,52.7Z" transform="translate(-41.84 -19.01)"/><path class="cls-14" d="M165.7,55c.09,0,.19,0,.25-.1a2.31,2.31,0,0,0,1.57-.88,1.07,1.07,0,0,1,.58-.42l.08,0,.07,0a5.16,5.16,0,0,1-1.15,1.23,1.38,1.38,0,0,1-1.26.21A.67.67,0,0,1,165.7,55Z" transform="translate(-41.84 -19.01)"/><path class="cls-15" d="M142.37,49c-.09,0-.19,0-.25.13a1.14,1.14,0,0,0-.92.38l-1,1.08c-.1,0-.16,0-.1-.11a6.21,6.21,0,0,1,1-1.13,1.84,1.84,0,0,1,.61-.38A.65.65,0,0,1,142.37,49Z" transform="translate(-41.84 -19.01)"/><path class="cls-16" d="M169.7,49.15l-.25-.11a1,1,0,0,1,.74-.09.6.6,0,0,1,.51.58c0,.08,0,.16.08.23s-.17.25-.33.27A1.55,1.55,0,0,0,169.7,49.15Z" transform="translate(-41.84 -19.01)"/><path class="cls-17" d="M139.2,49.06c-.1,0-.2,0-.25.13a.64.64,0,0,0-.64.22l-.93,1h0a.23.23,0,0,1-.07-.07v0a5.46,5.46,0,0,1,.88-1,1.64,1.64,0,0,1,.5-.32A.49.49,0,0,1,139.2,49.06Z" transform="translate(-41.84 -19.01)"/><path class="cls-18" d="M159.28,49.75c-.05.27-.28.38-.47.52-.19-.29.11-.7-.24-1a.74.74,0,0,0-.26-.15.34.34,0,0,1-.12-.09.09.09,0,0,1,0-.13.91.91,0,0,1,.49,0l.14.07a.55.55,0,0,1,.29.42C159.16,49.56,159.14,49.7,159.28,49.75Z" transform="translate(-41.84 -19.01)"/><path class="cls-19" d="M122.81,54.77a.3.3,0,0,0,.17-.27,1.2,1.2,0,0,0,1.19.47c.12,0,.25-.11.25.12a2.31,2.31,0,0,1-.83,0A1.11,1.11,0,0,1,122.81,54.77Z" transform="translate(-41.84 -19.01)"/><path class="cls-20" d="M157.37,52.58c.07.12.18.23,0,.35s-.15.19-.26.25a3.86,3.86,0,0,1-.54.6.2.2,0,0,1-.16,0,.15.15,0,0,1-.06-.15C156.67,53.29,156.81,52.74,157.37,52.58Z" transform="translate(-41.84 -19.01)"/><path class="cls-18" d="M151.9,54l1-1a.18.18,0,0,1,.16,0,5.69,5.69,0,0,1-1.19,1.21l0,0A.28.28,0,0,1,151.9,54Z" transform="translate(-41.84 -19.01)"/><path class="cls-16" d="M164.25,53.53a4.9,4.9,0,0,1-1.08,1.1.11.11,0,0,1-.18,0l1.15-1.18.05,0,.05,0Z" transform="translate(-41.84 -19.01)"/><path class="cls-21" d="M125,51.6c.06.11.17.11.27.14a4.63,4.63,0,0,1-1.48.34l0-.15C124.21,51.73,124.55,51.42,125,51.6Z" transform="translate(-41.84 -19.01)"/><path class="cls-22" d="M170.68,54.63l1-1a.33.33,0,0,1,.14,0l0,0a5.31,5.31,0,0,1-1.08,1.09C170.67,54.8,170.65,54.74,170.68,54.63Z" transform="translate(-41.84 -19.01)"/><path class="cls-23" d="M124.42,55.09c-.06-.09-.16-.09-.25-.12l1.11-.44a.19.19,0,0,1,.13.1A1.89,1.89,0,0,1,124.42,55.09Z" transform="translate(-41.84 -19.01)"/><path class="cls-24" d="M160.38,53.65a4.47,4.47,0,0,1-1.09,1.08s0-.07,0-.1,0,0,0,0l.92-.94a.25.25,0,0,1,.12,0Z" transform="translate(-41.84 -19.01)"/><path class="cls-16" d="M130.12,52.21c.1.13.24.1.37.11s.34,0,.48.12h-.77a3.7,3.7,0,0,0-.8.2A1,1,0,0,1,130.12,52.21Z" transform="translate(-41.84 -19.01)"/><path class="cls-25" d="M165,52.42c0,.09.14.17,0,.27a.68.68,0,0,1-.22.26l-.5.58,0,0-.05,0,0,0A6.62,6.62,0,0,1,165,52.42Z" transform="translate(-41.84 -19.01)"/><path class="cls-26" d="M74.16,21.47l.54,0c.12,0,.25,0,.33-.11.23,0,.4.1.7.15A3.34,3.34,0,0,1,74.16,21.47Z" transform="translate(-41.84 -19.01)"/><path class="cls-24" d="M144.15,50l-.83,1a.17.17,0,0,1-.11-.12A3.71,3.71,0,0,1,144,50,.17.17,0,0,1,144.15,50Z" transform="translate(-41.84 -19.01)"/><path class="cls-25" d="M146,49l-.13.13a1.53,1.53,0,0,0-.84.14c-.13.06-.14,0-.13-.11a1.21,1.21,0,0,1,.84-.27A.36.36,0,0,1,146,49Z" transform="translate(-41.84 -19.01)"/><path class="cls-24" d="M156.49,53.89a2.92,2.92,0,0,1-.83.85.19.19,0,0,1-.15-.18c.27-.29.46-.66.88-.78l0,0Z" transform="translate(-41.84 -19.01)"/><path class="cls-27" d="M150.07,55a7.63,7.63,0,0,0,1.1-.48c.13-.06.14,0,.13.12a2.61,2.61,0,0,1-1.09.48C150.16,55.06,150.08,55.05,150.07,55Z" transform="translate(-41.84 -19.01)"/><path class="cls-28" d="M133.62,52.31c-.08-.12-.21-.1-.33-.1a.51.51,0,0,1-.39-.12,4.17,4.17,0,0,0,1.22-.1.15.15,0,0,1,.12.1A1.06,1.06,0,0,1,133.62,52.31Z" transform="translate(-41.84 -19.01)"/><path class="cls-29" d="M150.82,51.61c.06.1.18.1.28.13a2.53,2.53,0,0,1-1,.25c-.13,0-.17,0-.19-.14A.71.71,0,0,1,150.82,51.61Z" transform="translate(-41.84 -19.01)"/><path class="cls-30" d="M127,53.06a5.79,5.79,0,0,1,.71-.86l0,0a.31.31,0,0,0,0,.1,3.6,3.6,0,0,1-.72.84A.22.22,0,0,1,127,53.06Z" transform="translate(-41.84 -19.01)"/><path class="cls-20" d="M153.38,49l-.14.15a.59.59,0,0,1-.57.1.45.45,0,0,1-.3-.24A1.09,1.09,0,0,1,153.38,49Z" transform="translate(-41.84 -19.01)"/><path class="cls-31" d="M172.49,52.93a4.22,4.22,0,0,1-.61.73l0,0a.33.33,0,0,0-.06-.1,5.17,5.17,0,0,1,.6-.73C172.48,52.79,172.54,52.81,172.49,52.93Z" transform="translate(-41.84 -19.01)"/><path class="cls-19" d="M150.07,55l.14.12A1.59,1.59,0,0,1,149,55l.13-.12A2.69,2.69,0,0,0,150.07,55Z" transform="translate(-41.84 -19.01)"/><path class="cls-32" d="M164.75,53a.44.44,0,0,1,.22-.26V54c-.18-.18-.11-.41-.13-.62S164.91,53.07,164.75,53Z" transform="translate(-41.84 -19.01)"/><path class="cls-33" d="M160.88,53.07l-.5.58,0,0-.06-.08a3.84,3.84,0,0,1,.59-.74.19.19,0,0,1,.07.12A.3.3,0,0,1,160.88,53.07Z" transform="translate(-41.84 -19.01)"/><path class="cls-34" d="M127.59,49.05l-.14.14c-.2.13-.42,0-.63,0a.37.37,0,0,1-.25-.19A1.11,1.11,0,0,1,127.59,49.05Z" transform="translate(-41.84 -19.01)"/><path class="cls-16" d="M136.9,51a.48.48,0,0,1-.09.14c-.15.13-.15.42-.43.4,0-.25.19-.36.29-.54a.74.74,0,0,1,.12-.13C136.89,50.86,137,50.87,136.9,51Z" transform="translate(-41.84 -19.01)"/><path class="cls-35" d="M144.89,49.2l.13.11-.74.58a.17.17,0,0,1,0-.17A1.62,1.62,0,0,1,144.89,49.2Z" transform="translate(-41.84 -19.01)"/><path class="cls-36" d="M53.63,29.78a1.12,1.12,0,0,1,.71-.19l.24.2A4.3,4.3,0,0,1,53.63,29.78Z" transform="translate(-41.84 -19.01)"/><path class="cls-37" d="M172.49,52.93l-.11-.12.47-.61c.07,0,.09.08.12.13A2.53,2.53,0,0,1,172.49,52.93Z" transform="translate(-41.84 -19.01)"/><path class="cls-38" d="M151.3,54.61l-.13-.12a3.14,3.14,0,0,1,.63-.45l.09.06,0,0A2.16,2.16,0,0,1,151.3,54.61Z" transform="translate(-41.84 -19.01)"/><path class="cls-24" d="M126.23,54a1.75,1.75,0,0,1-.6.48.17.17,0,0,1-.11-.11,2.55,2.55,0,0,1,.61-.47A.32.32,0,0,1,126.23,54Z" transform="translate(-41.84 -19.01)"/><path class="cls-39" d="M136.9,51l-.11-.13a3.1,3.1,0,0,1,.47-.61l0,0,0,.05,0,0Z" transform="translate(-41.84 -19.01)"/><path class="cls-31" d="M128.3,51.72a1.52,1.52,0,0,1-.42.49.17.17,0,0,1-.14,0l0,0,.48-.61C128.25,51.6,128.26,51.67,128.3,51.72Z" transform="translate(-41.84 -19.01)"/><path class="cls-40" d="M139.46,51.48c-.07,0-.14-.08-.11-.16s.06-.34.21-.45l.11.1a.09.09,0,0,1,0,.15h0a.08.08,0,0,0,0,.07s0,0,0,0A.29.29,0,0,1,139.46,51.48Z" transform="translate(-41.84 -19.01)"/><path class="cls-41" d="M163,54.6l.18,0a1.55,1.55,0,0,1-.74.46.09.09,0,0,1,0-.09s0,0,0,0A2.27,2.27,0,0,1,163,54.6Z" transform="translate(-41.84 -19.01)"/><path class="cls-42" d="M145.37,55v.12a.82.82,0,0,1-.85-.11c.11,0,.21,0,.26-.14A.88.88,0,0,0,145.37,55Z" transform="translate(-41.84 -19.01)"/><path class="cls-29" d="M162.44,55v.13a1,1,0,0,1-1-.1.28.28,0,0,0,.26-.14A1,1,0,0,0,162.44,55Z" transform="translate(-41.84 -19.01)"/><path class="cls-28" d="M139.69,51.12l0-.15.38-.46.1.11A1,1,0,0,1,139.69,51.12Z" transform="translate(-41.84 -19.01)"/><path class="cls-43" d="M157.72,49.3c-.05-.11-.16-.1-.25-.13a.43.43,0,0,1,.34-.13.39.39,0,0,1,.39,0h0a.11.11,0,0,1,0,.16C158.06,49.34,157.91,49.44,157.72,49.3Z" transform="translate(-41.84 -19.01)"/><path class="cls-44" d="M173,52.33l-.12-.13a1.94,1.94,0,0,1,.36-.49.2.2,0,0,1,.11.13A1.84,1.84,0,0,1,173,52.33Z" transform="translate(-41.84 -19.01)"/><path class="cls-45" d="M78.06,34.89c.1,0,.19,0,.24-.12l.37.24c0,.12,0,.18-.14.14A1,1,0,0,1,78.06,34.89Z" transform="translate(-41.84 -19.01)"/><path class="cls-46" d="M168.64,53.2l-.39.46,0,0c-.06,0-.13-.1-.12-.19s.22-.43.52-.39a.1.1,0,0,1,0,.09S168.65,53.2,168.64,53.2Z" transform="translate(-41.84 -19.01)"/><path class="cls-47" d="M160.87,52.94v-.13a1.4,1.4,0,0,1,.37-.47c0,.16,0,.34-.11.47S161,53,160.87,52.94Z" transform="translate(-41.84 -19.01)"/><path class="cls-47" d="M155.55,54.63l.11.11a1.31,1.31,0,0,1-.61.36.24.24,0,0,1-.05-.16C155.12,54.73,155.27,54.57,155.55,54.63Z" transform="translate(-41.84 -19.01)"/><path class="cls-48" d="M169.33,55c.11,0,.22,0,.27-.15a.7.7,0,0,0,.59.13.09.09,0,0,1,0,.09s0,0,0,0A.88.88,0,0,1,169.33,55Z" transform="translate(-41.84 -19.01)"/><path class="cls-49" d="M155.05,55v.14a.94.94,0,0,1-.86-.1l.15-.15A.82.82,0,0,1,155.05,55Z" transform="translate(-41.84 -19.01)"/><path class="cls-23" d="M170.19,55.1V55l.49-.34.12.12A1.21,1.21,0,0,1,170.19,55.1Z" transform="translate(-41.84 -19.01)"/><path class="cls-20" d="M158.68,55a2,2,0,0,1,.5-.31.11.11,0,0,1,0,.15.81.81,0,0,1-.5.3s-.05-.06,0-.09S158.67,55,158.68,55Z" transform="translate(-41.84 -19.01)"/><path class="cls-22" d="M126.57,49a.43.43,0,0,1,.28.11c-.09.15-.2.23-.37.13s-.24-.07-.36-.1A.57.57,0,0,1,126.57,49Z" transform="translate(-41.84 -19.01)"/><path class="cls-50" d="M150,51.87l.15.12a.67.67,0,0,1-.52.1c0-.14,0-.29.13-.36S149.93,51.77,150,51.87Z" transform="translate(-41.84 -19.01)"/><path class="cls-51" d="M143.21,50.88l.11.12a1.3,1.3,0,0,1-.38.46v0a.22.22,0,0,1-.06-.24.89.89,0,0,1,.29-.32Z" transform="translate(-41.84 -19.01)"/><path class="cls-52" d="M78.53,35.15l.14-.14.23.18s.1.09,0,.14a.14.14,0,0,1-.11,0Z" transform="translate(-41.84 -19.01)"/><path class="cls-53" d="M152.37,49c.09,0,.2,0,.26.12-.09.14-.2.22-.36.12s-.17-.09-.27-.12A.5.5,0,0,1,152.37,49Z" transform="translate(-41.84 -19.01)"/><path class="cls-54" d="M153.23,52.8s0-.07.05-.1a.27.27,0,0,1,.14-.07c.06,0,.06.07.06.12a.56.56,0,0,1-.11.32C153.34,53,153.35,52.85,153.23,52.8Z" transform="translate(-41.84 -19.01)"/><path class="cls-55" d="M168.64,53.2l0-.15,0-.06.05,0,0,0c.08,0,.14.06.14.14a.48.48,0,0,1-.12.36C168.71,53.35,168.74,53.25,168.64,53.2Z" transform="translate(-41.84 -19.01)"/><path class="cls-56" d="M143.18,50.86a.51.51,0,0,1-.23.29.14.14,0,0,1,0-.18.56.56,0,0,1,.13-.35C143.09,50.71,143.08,50.81,143.18,50.86Z" transform="translate(-41.84 -19.01)"/><path class="cls-57" d="M50.83,25.82a.53.53,0,0,1-.37.15.09.09,0,0,1,0-.1s0,0,0,0,.14-.13.24-.13Z" transform="translate(-41.84 -19.01)"/><path class="cls-58" d="M157.12,53.18a.33.33,0,0,1,.26-.25.63.63,0,0,1-.14.37Z" transform="translate(-41.84 -19.01)"/><path class="cls-59" d="M173.32,51.84l-.11-.13.13-.18s.07,0,.09,0a.1.1,0,0,1,0,.09C173.42,51.68,173.37,51.76,173.32,51.84Z" transform="translate(-41.84 -19.01)"/><path class="cls-16" d="M128.3,51.72l-.12-.13a1.13,1.13,0,0,1,.1-.13.12.12,0,0,1,.1,0,.11.11,0,0,1,0,.15A1.47,1.47,0,0,1,128.3,51.72Z" transform="translate(-41.84 -19.01)"/><path class="cls-60" d="M125.52,54.38l.11.11-.22.14-.13-.1Z" transform="translate(-41.84 -19.01)"/><path class="cls-61" d="M158.68,55v.14a.75.75,0,0,1-.47,0V55Z" transform="translate(-41.84 -19.01)"/><path class="cls-30" d="M158.2,49.06l-.39,0a.56.56,0,0,1,.4-.09A.41.41,0,0,0,158.2,49.06Z" transform="translate(-41.84 -19.01)"/><path class="cls-62" d="M134.86,68.43v-.05c0-.08.08-.16.15-.14s.08.11.06.19Z" transform="translate(-41.84 -19.01)"/><path class="cls-49" d="M126.72,53.39c0-.07,0-.1.1-.11a.09.09,0,0,1,.12,0,.34.34,0,0,1-.22.22.11.11,0,0,1,0-.08S126.71,53.39,126.72,53.39Z" transform="translate(-41.84 -19.01)"/><path class="cls-63" d="M160.87,52.94l.26-.13c0,.1,0,.2-.13.24l-.12,0Z" transform="translate(-41.84 -19.01)"/><path class="cls-64" d="M170.78,49.76c-.1,0-.1-.14-.08-.23l.12,0Z" transform="translate(-41.84 -19.01)"/><path class="cls-27" d="M134.24,52.09l-.12-.1a.53.53,0,0,1,.12,0s0,0,.08,0Z" transform="translate(-41.84 -19.01)"/><path class="cls-49" d="M126.72,53.39v.12c0,.07,0,.11-.12.12a.11.11,0,0,1,0-.08s0,0,0,0A.13.13,0,0,1,126.72,53.39Z" transform="translate(-41.84 -19.01)"/><path class="cls-49" d="M126.6,53.51v.12c0,.07,0,.11-.12.12a.11.11,0,0,1,0-.08s0,0,0,0A.13.13,0,0,1,126.6,53.51Z" transform="translate(-41.84 -19.01)"/><path class="cls-48" d="M126.48,53.63v.12a.14.14,0,0,1-.12.11.11.11,0,0,1,0-.07l0,0A.14.14,0,0,1,126.48,53.63Z" transform="translate(-41.84 -19.01)"/><path class="cls-65" d="M127.74,52.23l.14,0-.08.11A.09.09,0,0,1,127.74,52.23Z" transform="translate(-41.84 -19.01)"/><path class="cls-66" d="M153.1,52.93h-.16c0-.06.08-.12.17-.12l0,0A.08.08,0,0,1,153.1,52.93Z" transform="translate(-41.84 -19.01)"/><path class="cls-8" d="M139.67,51.22s0,0,0-.07l0,0A.43.43,0,0,1,139.67,51.22Z" transform="translate(-41.84 -19.01)"/><path class="cls-67" d="M144.15,50H144l.17-.13,0,0A.08.08,0,0,1,144.15,50Z" transform="translate(-41.84 -19.01)"/><path class="cls-68" d="M127,53.06l.09.1a.06.06,0,0,1-.08,0l0-.05A.07.07,0,0,1,127,53.06Z" transform="translate(-41.84 -19.01)"/><path class="cls-67" d="M160.28,53.55a.08.08,0,0,1,.06.08l-.13,0Z" transform="translate(-41.84 -19.01)"/><path class="cls-69" d="M171.78,53.54l.06.1h-.14Z" transform="translate(-41.84 -19.01)"/><path class="cls-67" d="M144.28,49.72v.17a.1.1,0,0,1-.1,0l0,0Z" transform="translate(-41.84 -19.01)"/><path class="cls-64" d="M170.91,49.42a.14.14,0,0,1-.09.15A.13.13,0,0,1,170.91,49.42Z" transform="translate(-41.84 -19.01)"/><path class="cls-70" d="M126.35,53.75a.41.41,0,0,1,0,.11.07.07,0,0,1-.09.06l0-.05A.15.15,0,0,1,126.35,53.75Z" transform="translate(-41.84 -19.01)"/><path class="cls-61" d="M157.82,55a.16.16,0,0,1,.14.08C157.89,55.1,157.85,55.07,157.82,55Z" transform="translate(-41.84 -19.01)"/><path class="cls-42" d="M156.49,53.89a.08.08,0,0,1-.06-.08l.15,0Z" transform="translate(-41.84 -19.01)"/><path class="cls-68" d="M126.94,53.29h-.12a.15.15,0,0,1,.13-.13s0,0,0,.05A.08.08,0,0,1,126.94,53.29Z" transform="translate(-41.84 -19.01)"/><path class="cls-70" d="M126.23,54l-.1-.1a.1.1,0,0,1,.09,0l0,.05A.08.08,0,0,1,126.23,54Z" transform="translate(-41.84 -19.01)"/><path class="cls-30" d="M158.84,49,158.7,49Z" transform="translate(-41.84 -19.01)"/><path class="cls-68" d="M151.89,54.1,151.8,54l.1-.08Z" transform="translate(-41.84 -19.01)"/><path class="cls-61" d="M158.21,55a.12.12,0,0,1-.13-.1Z" transform="translate(-41.84 -19.01)"/><path class="cls-71" d="M159.18,54.8v-.15l.11-.06v.14Z" transform="translate(-41.84 -19.01)"/><path class="cls-4" d="M83.62,55.07A2.61,2.61,0,0,0,82,52.94a4.85,4.85,0,0,0-1.45-.38,7.41,7.41,0,0,0-2.53.18,3.88,3.88,0,0,1-1.08.09,1.05,1.05,0,0,1-.35-.08.34.34,0,0,1-.11-.55,1.37,1.37,0,0,1,.23-.19A1.71,1.71,0,0,1,78,51.75a4.3,4.3,0,0,0,1.56,0A4.09,4.09,0,0,0,83,48a4.65,4.65,0,0,0-.55-2.86.21.21,0,0,1,.07-.31l1.07-.78a10.35,10.35,0,0,0-1.89-1.7c-.29.33-.58.66-.86,1a.26.26,0,0,1-.37.09,5.65,5.65,0,0,0-5.76.66c-.23.19-.43.42-.64.63.05.11.11.21.17.32l1.65,2.65a.36.36,0,0,0,.14-.1,5.74,5.74,0,0,1,0-.71c0-.14.07-.28.12-.41a2.11,2.11,0,0,1,3.7-.34,2.09,2.09,0,0,1,.3.91,3,3,0,0,1-.13,1.25A1.85,1.85,0,0,1,78,49.61a2.08,2.08,0,0,1-1.27-.5h0c-.2.06-.27-.12-.36-.22C75.62,48,74.81,47.14,74,46.3a2.06,2.06,0,0,0-.49-.44,3,3,0,0,0-.19.82,6.81,6.81,0,0,0,0,.78,4.6,4.6,0,0,0,.1.84A4,4,0,0,0,74,49.84a4.8,4.8,0,0,0,.51.59c.2.19.41.36.66.57l-.39.25a3.13,3.13,0,0,0-.85.85,1.8,1.8,0,0,0,.7,2.54,2.9,2.9,0,0,0,.62.23,6.19,6.19,0,0,0,2.23.07c.56-.07,1.12-.13,1.68-.15a2.56,2.56,0,0,1,1.25.2A.86.86,0,0,1,81,56a1,1,0,0,1-.46.61,2.9,2.9,0,0,1-.89.37,4.78,4.78,0,0,1-4.13-.84,2.37,2.37,0,0,0-.45-.32l-1.68,2.07a1.66,1.66,0,0,0,.5.4,8.27,8.27,0,0,0,6,1.09,6.4,6.4,0,0,0,2-.71A3.24,3.24,0,0,0,83.62,55.07Z" transform="translate(-41.84 -19.01)"/><path class="cls-72" d="M76.1,46.89l0,1.13a.46.46,0,0,1-.2-.32c.11-.13.06-.29.07-.44S76,47,76.1,46.89Z" transform="translate(-41.84 -19.01)"/><path class="cls-73" d="M50.46,25.83V26a.32.32,0,0,1-.29.08A.46.46,0,0,1,50.46,25.83Z" transform="translate(-41.84 -19.01)"/><path class="cls-4" d="M103.48,52.06c0-.32,0-.64,0-1,0-.64,0-1.29,0-1.93a16.47,16.47,0,0,0-.1-2,7.28,7.28,0,0,0-.38-1.71,3.36,3.36,0,0,0-2-2.05,5,5,0,0,0-.93-.28,9.7,9.7,0,0,0-3.72,0,5.13,5.13,0,0,0-1.26.4c-.1.05-.18.11-.15.23.16.6.33,1.2.5,1.8a.15.15,0,0,0,.18.12l.23-.08a6.57,6.57,0,0,1,3-.31,1.94,1.94,0,0,1,.53.12,1.77,1.77,0,0,1,1.34,1.67c0,.15,0,.22-.22.18a6.3,6.3,0,0,0-2.41,0,6.12,6.12,0,0,0-2.35.72,3.8,3.8,0,0,0-2,2.69,4.92,4.92,0,0,0-.06,1.21,3.21,3.21,0,0,0,2.23,3,5.28,5.28,0,0,0,2.81.19,3.76,3.76,0,0,0,2.16-1.13s.07,0,.13,0a3.7,3.7,0,0,0,.46.68,1.64,1.64,0,0,0,1.41.57l.36,0a1.31,1.31,0,0,0,1.13-.82A3,3,0,0,1,103.48,52.06Zm-2.88-.69A1.92,1.92,0,0,1,99,52.92a3.87,3.87,0,0,1-1.27,0,1.37,1.37,0,0,1-1.27-1.37,1.77,1.77,0,0,1,1.06-1.92,4.92,4.92,0,0,1,3.22-.22A9.64,9.64,0,0,1,100.6,51.37Z" transform="translate(-41.84 -19.01)"/><path class="cls-4" d="M58.44,46.76a4.89,4.89,0,0,0-3.58-3.59A6.72,6.72,0,0,0,52.58,43a5.14,5.14,0,0,0-4.41,2.84,6.12,6.12,0,0,0-.68,2.25,7.72,7.72,0,0,0,.41,3.69A4.94,4.94,0,0,0,51.7,55a7.11,7.11,0,0,0,2.11.09,5,5,0,0,0,4.52-3.48A7.23,7.23,0,0,0,58.72,49,7.59,7.59,0,0,0,58.44,46.76Zm-2.78,4a4.32,4.32,0,0,1-.26.68,2.65,2.65,0,0,1-3.6,1.18,2.25,2.25,0,0,1-1-1,4.07,4.07,0,0,1-.42-1.26,7.75,7.75,0,0,1,.05-2.88,3.7,3.7,0,0,1,.41-1.06,2.68,2.68,0,0,1,3.7-.89,2.46,2.46,0,0,1,1,1.27,6.36,6.36,0,0,1,.34,1.83V49A6.32,6.32,0,0,1,55.66,50.78Z" transform="translate(-41.84 -19.01)"/><path class="cls-5" d="M145.26,67.1a3.43,3.43,0,0,0-3-1.47,2.59,2.59,0,0,0-.85.14,3.25,3.25,0,0,0-2.37,2.5,3.16,3.16,0,0,0,1.19,3.23,3.54,3.54,0,0,0,4.07.21A3.27,3.27,0,0,0,145.26,67.1Zm-.42,2.46a2.42,2.42,0,0,1-2.25,1.79h-.15a2.46,2.46,0,0,1-1.61-.51,2.26,2.26,0,0,1-.92-2.33,2.35,2.35,0,0,1,1.61-1.87,2.5,2.5,0,0,1,2.21.22A2.33,2.33,0,0,1,144.84,69.56Z" transform="translate(-41.84 -19.01)"/><path class="cls-5" d="M163.57,66.79a3.35,3.35,0,0,0-3.75-1,3.1,3.1,0,0,0-2.23,2.48,3.17,3.17,0,0,0,1.22,3.22,3.44,3.44,0,0,0,2.67.7,3.33,3.33,0,0,0,2.9-3.34A3,3,0,0,0,163.57,66.79Zm-.26,3a2.38,2.38,0,0,1-2.06,1.55H161a2.37,2.37,0,0,1-1.52-.47,2.39,2.39,0,0,1,.66-4.23,2.48,2.48,0,0,1,2.76.69A2.21,2.21,0,0,1,163.31,69.79Z" transform="translate(-41.84 -19.01)"/><path class="cls-5" d="M126.64,66.79a3.35,3.35,0,0,0-3.75-1,3.26,3.26,0,0,0-1,5.7,3.45,3.45,0,0,0,2.67.7,3.33,3.33,0,0,0,2.91-3.34A3.05,3.05,0,0,0,126.64,66.79Zm-.26,3a2.35,2.35,0,0,1-2,1.55H124a2.45,2.45,0,0,1-2.51-2.72,2.35,2.35,0,0,1,1.58-2,2.6,2.6,0,0,1,2.83.66A2.26,2.26,0,0,1,126.38,69.79Z" transform="translate(-41.84 -19.01)"/><path class="cls-5" d="M84.73,71.14c-.18-.29-.39-.56-.57-.85a9.91,9.91,0,0,1-.55-.83c.1-.14.24-.14.34-.19a3.89,3.89,0,0,0,.54-.27,1.65,1.65,0,0,0,0-2.76,2.33,2.33,0,0,0-.72-.32,8.74,8.74,0,0,0-2-.08c-.11,0-.17.09-.18.21V71.5c0,.62,0,.55.62.55.15,0,.23-.07.23-.21V70.2c0-.18,0-.36,0-.54a.12.12,0,0,1,.09-.13.24.24,0,0,1,.16.07,3.06,3.06,0,0,1,.21.29l1,1.55c.44.65.44.65,1.21.6,0,0,0,0,.09-.05A4.21,4.21,0,0,0,84.73,71.14Zm-2.06-2.39c-.14,0-.21-.08-.22-.23V66.83c0-.14.06-.24.21-.23a2.88,2.88,0,0,1,1,.11,1,1,0,0,1,.67.9.92.92,0,0,1-.62.94A2.69,2.69,0,0,1,82.67,68.75Z" transform="translate(-41.84 -19.01)"/><path class="cls-5" d="M58.34,71.13c-.19-.28-.39-.56-.58-.85a10.06,10.06,0,0,1-.56-.87l.37-.15a3.89,3.89,0,0,0,.54-.27,1.64,1.64,0,0,0,0-2.75,1.8,1.8,0,0,0-.66-.3,7.75,7.75,0,0,0-2-.1.16.16,0,0,0-.16.16c0,.1,0,.2,0,.3v5.26c0,.1,0,.2,0,.3s.08.18.19.19h.43c.15,0,.22-.08.22-.22V70a2.17,2.17,0,0,1,0-.36.11.11,0,0,1,.15,0,1.34,1.34,0,0,1,.2.21c.39.56.77,1.13,1.15,1.7s.44.64,1.22.58l.08-.06A7,7,0,0,0,58.34,71.13ZM56.06,68v-.36h0c0-.3,0-.6,0-.9a.15.15,0,0,1,.15-.16,2.51,2.51,0,0,1,1.12.14,1,1,0,0,1,.61.89.91.91,0,0,1-.52.88,1.9,1.9,0,0,1-.57.18C56,68.81,56.06,68.81,56.06,68Z" transform="translate(-41.84 -19.01)"/><path class="cls-5" d="M118.09,71.87c-.08-.14-.17-.27-.26-.41-.46-.66-.91-1.33-1.39-2a6.68,6.68,0,0,0,.73-.31,1.63,1.63,0,0,0,.93-1.51,1.6,1.6,0,0,0-.92-1.46,2.41,2.41,0,0,0-.56-.22,8.28,8.28,0,0,0-2-.08c-.09,0-.13.08-.14.17v.3c0,1.75,0,3.51,0,5.26v.3a.18.18,0,0,0,.2.18h.42c.15,0,.22-.08.22-.23,0-.62,0-1.25,0-1.87a2.17,2.17,0,0,1,0-.36.09.09,0,0,1,.14,0,.83.83,0,0,1,.2.22c.42.62.83,1.24,1.25,1.85s.19.43.83.44H118A.1.1,0,0,0,118.09,71.87ZM115.34,68c0-.1,0-.2,0-.3s0-.28,0-.42c0-.76-.09-.67.67-.64a1.86,1.86,0,0,1,.47.09,1,1,0,0,1,0,1.88,1.31,1.31,0,0,1-.34.09C115.22,68.8,115.34,68.89,115.34,68Z" transform="translate(-41.84 -19.01)"/><path class="cls-5" d="M49.92,65.61c-.1.19-.15.27-.19.36l-2.55,5.67a1.47,1.47,0,0,0-.1.22c0,.11,0,.18.15.19h.42a.31.31,0,0,0,.32-.21c.17-.41.36-.81.54-1.21a.23.23,0,0,1,.23-.16H51a.27.27,0,0,1,.28.18c.13.3.26.59.4.88.3.61.13.51.85.52a1.13,1.13,0,0,0,.18,0s0-.09,0-.12C51.83,69.83,50.89,67.76,49.92,65.61Zm.72,4.14H49a3.16,3.16,0,0,1,.39-1.08c.14-.35.32-.68.52-1.11l.89,2C50.86,69.66,50.8,69.75,50.64,69.75Z" transform="translate(-41.84 -19.01)"/><path class="cls-5" d="M45.63,67.13A1.78,1.78,0,0,0,44.45,66a6.15,6.15,0,0,0-2.22-.15.12.12,0,0,0-.12.11,2.17,2.17,0,0,0,0,.36v5.51a.19.19,0,0,0,.22.22c.66,0,.62.08.62-.61V69.53l1-.13a2.21,2.21,0,0,0,1.31-.69A1.58,1.58,0,0,0,45.63,67.13Zm-1.5,1.44a3.51,3.51,0,0,1-1.11.16s-.07-.09-.07-.12c0-.61,0-1.21,0-1.81,0-.17.06-.22.22-.21a2.85,2.85,0,0,1,1,.12,1,1,0,0,1,.68,1A.9.9,0,0,1,44.13,68.57Z" transform="translate(-41.84 -19.01)"/><path class="cls-5" d="M111.61,67.13a1.44,1.44,0,0,0-.42-.66,2.1,2.1,0,0,0-1.17-.58,11.38,11.38,0,0,0-1.75-.06c-.12,0-.19.07-.19.19v5.81a.19.19,0,0,0,.22.22c.66,0,.62.07.62-.61V69.53l1-.13a2.17,2.17,0,0,0,1.31-.7A1.56,1.56,0,0,0,111.61,67.13Zm-1.41,1.4a3.5,3.5,0,0,1-1.06.21c-.15,0-.22,0-.22-.21v-1.7c0-.21,0-.24.24-.24h.19a2.3,2.3,0,0,1,.82.16.93.93,0,0,1,.61.89A.89.89,0,0,1,110.2,68.53Z" transform="translate(-41.84 -19.01)"/><path class="cls-74" d="M142.93,51l0,.18v.27c-.2,0-.24,0-.17-.2S142.88,51.06,142.93,51Z" transform="translate(-41.84 -19.01)"/><path class="cls-14" d="M165.83,54.76l.1.12C165.87,54.86,165.83,54.83,165.83,54.76Z" transform="translate(-41.84 -19.01)"/><path class="cls-75" d="M168.08,53.65l.07-.11a.09.09,0,0,1,.06.1Z" transform="translate(-41.84 -19.01)"/><path class="cls-66" d="M137.35,50.35h0v0A0,0,0,0,1,137.35,50.35Z" transform="translate(-41.84 -19.01)"/><path class="cls-30" d="M158.56,49.15h-.36v-.09C158.33,49.06,158.47,49,158.56,49.15Z" transform="translate(-41.84 -19.01)"/><path class="cls-76" d="M164.17,53.46h0v0S164.17,53.49,164.17,53.46Z" transform="translate(-41.84 -19.01)"/><path class="cls-8" d="M168.61,53.06c0-.08,0-.14.13-.14Z" transform="translate(-41.84 -19.01)"/></svg>